<svg xmlns="http://www.w3.org/2000/svg" viewBox="0 0 320 360" role="img" aria-labelledby="title desc">
  <title id="title">Pirate Pairs Boss Fallback</title>
  <desc id="desc">Neutraler stilisierter Piratengegner als lokaler Fallback.</desc>
  <defs>
    <linearGradient id="coat" x1="0" y1="0" x2="0" y2="1"><stop stop-color="#3e6772"/><stop offset="1" stop-color="#163845"/></linearGradient>
    <linearGradient id="gold" x1="0" y1="0" x2="1" y2="1"><stop stop-color="#fff0b0"/><stop offset=".45" stop-color="#d8aa54"/><stop offset="1" stop-color="#76501e"/></linearGradient>
    <radialGradient id="skin" cx="45%" cy="30%" r="75%"><stop stop-color="#d8a16f"/><stop offset="1" stop-color="#8b5638"/></radialGradient>
  </defs>
  <ellipse cx="160" cy="330" rx="106" ry="18" fill="#020c13" opacity=".46"/>
  <path d="M65 310c8-71 38-112 95-112s87 41 95 112" fill="url(#coat)" stroke="#0a202b" stroke-width="10"/>
  <path d="M108 213l52 65 52-65" fill="#762f2d" stroke="url(#gold)" stroke-width="7"/>
  <circle cx="160" cy="153" r="65" fill="url(#skin)" stroke="#402c26" stroke-width="8"/>
  <path d="M80 120c17-57 65-83 116-60 20 9 35 26 44 48-26-10-53-10-78-4-29 7-55 22-82 16z" fill="#142f3c" stroke="url(#gold)" stroke-width="7"/>
  <path d="M93 106c45-31 89-36 136-8" fill="none" stroke="#9b3f38" stroke-width="18" stroke-linecap="round"/>
  <circle cx="137" cy="150" r="8" fill="#101719"/><circle cx="188" cy="150" r="8" fill="#101719"/>
  <path d="M133 178c17 15 37 15 55 0" fill="none" stroke="#563527" stroke-width="7" stroke-linecap="round"/>
  <path d="M149 153l-10 22h23" fill="none" stroke="#7e4c35" stroke-width="5" stroke-linejoin="round"/>
  <path d="M113 138c14-9 26-9 40-2M174 136c14-7 26-6 38 2" fill="none" stroke="#3e2a24" stroke-width="7" stroke-linecap="round"/>
  <path d="M127 225h66" stroke="url(#gold)" stroke-width="8" stroke-linecap="round"/>
  <circle cx="160" cy="253" r="14" fill="#0e3340" stroke="url(#gold)" stroke-width="6"/>
</svg>
